<svg width="85" height="85" viewBox="0 0 85 85" fill="none" xmlns="http://www.w3.org/2000/svg">
<path d="M8 41.3238C8 32.3125 15.1094 25 23.8703 25C28.0813 25 32.1172 26.7212 35.0922 29.7812L43 37.9037L50.8969 29.7812C53.8828 26.7212 57.9187 25 62.1297 25C70.8906 25 78 32.3125 78 41.3238V44.665C78 53.6875 70.8906 61 62.1297 61C57.9187 61 53.8828 59.2787 50.9078 56.2187L43 48.0962L35.1031 56.2187C32.1172 59.2787 28.0813 61 23.8703 61C15.1094 61 8 53.6875 8 44.6762V41.3238ZM38.0453 43L30.1484 34.8775C28.4859 33.1675 26.2219 32.2 23.8703 32.2C18.9703 32.2 15 36.2838 15 41.3238V44.665C15 49.705 18.9703 53.7887 23.8703 53.7887C26.2219 53.7887 28.4859 52.8325 30.1484 51.1112L38.0453 43ZM47.9438 43L55.8406 51.1225C57.5031 52.8325 59.7672 53.8 62.1187 53.8C67.0187 53.8 70.9891 49.7162 70.9891 44.6762V41.3238C70.9891 36.2838 67.0187 32.2 62.1187 32.2C59.7672 32.2 57.5031 33.1563 55.8406 34.8775L47.9547 43H47.9438Z" fill="#D50B0B"/>
</svg>
