<svg xmlns="http://www.w3.org/2000/svg" xmlns:xlink="http://www.w3.org/1999/xlink" width="250" zoomAndPan="magnify" viewBox="0 0 187.5 30.000001" height="40" preserveAspectRatio="xMidYMid meet" version="1.0"><defs><g/><clipPath id="cb0e94069e"><path d="M 14 2.910156 L 26 2.910156 L 26 19 L 14 19 Z M 14 2.910156 " clip-rule="nonzero"/></clipPath><clipPath id="b61af6c150"><path d="M 9 10 L 31 10 L 31 27.652344 L 9 27.652344 Z M 9 10 " clip-rule="nonzero"/></clipPath></defs><g clip-path="url(#cb0e94069e)"><path fill="#ce5986" d="M 19.941406 18.691406 C 19.179688 18.691406 18.4375 18.539062 17.742188 18.242188 C 17.066406 17.957031 16.460938 17.546875 15.941406 17.023438 C 15.425781 16.5 15.015625 15.890625 14.730469 15.210938 C 14.433594 14.511719 14.285156 13.765625 14.285156 12.996094 L 14.285156 8.628906 C 14.285156 7.859375 14.4375 7.113281 14.730469 6.410156 C 15.015625 5.730469 15.421875 5.121094 15.941406 4.601562 C 16.460938 4.078125 17.066406 3.667969 17.742188 3.378906 C 18.4375 3.078125 19.179688 2.929688 19.941406 2.929688 C 20.707031 2.929688 21.449219 3.082031 22.144531 3.378906 C 22.820312 3.667969 23.425781 4.074219 23.941406 4.601562 C 24.460938 5.121094 24.871094 5.730469 25.15625 6.410156 C 25.453125 7.113281 25.601562 7.859375 25.601562 8.628906 L 25.601562 12.996094 C 25.601562 13.765625 25.449219 14.511719 25.15625 15.210938 C 24.871094 15.890625 24.464844 16.5 23.941406 17.023438 C 23.425781 17.542969 22.820312 17.957031 22.144531 18.242188 C 21.449219 18.539062 20.707031 18.691406 19.941406 18.691406 Z M 19.941406 4.835938 C 17.871094 4.835938 16.179688 6.535156 16.179688 8.628906 L 16.179688 12.996094 C 16.179688 15.082031 17.863281 16.785156 19.941406 16.785156 C 22.015625 16.785156 23.707031 15.085938 23.707031 12.996094 L 23.707031 8.628906 C 23.703125 6.535156 22.015625 4.835938 19.941406 4.835938 Z M 19.941406 4.835938 " fill-opacity="1" fill-rule="nonzero"/></g><g clip-path="url(#b61af6c150)"><path fill="#f9729a" d="M 27.835938 10.75 C 23.453125 9.675781 20.769531 13.023438 19.921875 14.296875 C 19.078125 13.023438 16.386719 9.675781 12.003906 10.75 C 7.183594 11.929688 8.035156 21 18.117188 26.699219 C 18.691406 27.023438 19.285156 27.335938 19.921875 27.632812 C 20.550781 27.335938 21.152344 27.023438 21.722656 26.699219 C 31.808594 20.992188 32.65625 11.925781 27.835938 10.75 Z M 27.835938 10.75 " fill-opacity="1" fill-rule="nonzero"/></g><path fill="#57443d" d="M 21.269531 20.476562 L 21.269531 17.414062 C 21.269531 16.757812 20.742188 16.230469 20.09375 16.230469 C 19.441406 16.230469 18.921875 16.761719 18.921875 17.414062 L 18.921875 20.535156 C 18.300781 20.9375 17.890625 21.636719 17.890625 22.441406 C 17.890625 23.691406 18.898438 24.710938 20.144531 24.710938 C 21.386719 24.710938 22.398438 23.695312 22.398438 22.441406 C 22.390625 21.605469 21.9375 20.867188 21.269531 20.476562 Z M 21.269531 20.476562 " fill-opacity="1" fill-rule="nonzero"/><g fill="#f9729a" fill-opacity="1"><g transform="translate(37.989041, 21.347124)"><g><path d="M 4.890625 -2.90625 L 9.140625 -2.90625 L 9.140625 0 L 1.09375 0 L 1.09375 -13.6875 L 4.890625 -13.6875 Z M 4.890625 -2.90625 "/></g></g></g><g fill="#f9729a" fill-opacity="1"><g transform="translate(47.513848, 21.347124)"><g><path d="M 7.640625 0.140625 C 6.359375 0.140625 5.179688 -0.160156 4.109375 -0.765625 C 3.035156 -1.367188 2.1875 -2.203125 1.5625 -3.265625 C 0.9375 -4.335938 0.625 -5.546875 0.625 -6.890625 C 0.625 -8.234375 0.9375 -9.4375 1.5625 -10.5 C 2.1875 -11.570312 3.035156 -12.40625 4.109375 -13 C 5.179688 -13.59375 6.359375 -13.890625 7.640625 -13.890625 C 8.941406 -13.890625 10.125 -13.59375 11.1875 -13 C 12.25 -12.40625 13.09375 -11.570312 13.71875 -10.5 C 14.34375 -9.4375 14.65625 -8.234375 14.65625 -6.890625 C 14.65625 -5.546875 14.34375 -4.335938 13.71875 -3.265625 C 13.09375 -2.203125 12.242188 -1.367188 11.171875 -0.765625 C 10.097656 -0.160156 8.921875 0.140625 7.640625 0.140625 Z M 7.640625 -3.390625 C 8.617188 -3.390625 9.390625 -3.707031 9.953125 -4.34375 C 10.515625 -4.976562 10.796875 -5.828125 10.796875 -6.890625 C 10.796875 -7.972656 10.515625 -8.828125 9.953125 -9.453125 C 9.390625 -10.085938 8.617188 -10.40625 7.640625 -10.40625 C 6.660156 -10.40625 5.890625 -10.085938 5.328125 -9.453125 C 4.773438 -8.828125 4.5 -7.972656 4.5 -6.890625 C 4.5 -5.816406 4.773438 -4.960938 5.328125 -4.328125 C 5.890625 -3.703125 6.660156 -3.390625 7.640625 -3.390625 Z M 7.640625 -3.390625 "/></g></g></g><g fill="#f9729a" fill-opacity="1"><g transform="translate(62.780704, 21.347124)"><g><path d="M 14.40625 -13.6875 L 9.6875 0 L 4.8125 0 L 0.078125 -13.6875 L 4.15625 -13.6875 L 7.265625 -3.796875 L 10.34375 -13.6875 Z M 14.40625 -13.6875 "/></g></g></g><g fill="#f9729a" fill-opacity="1"><g transform="translate(77.271603, 21.347124)"><g><path d="M 4.890625 -10.640625 L 4.890625 -8.40625 L 9.25 -8.40625 L 9.25 -5.515625 L 4.890625 -5.515625 L 4.890625 -3.046875 L 9.84375 -3.046875 L 9.84375 0 L 1.09375 0 L 1.09375 -13.6875 L 9.84375 -13.6875 L 9.84375 -10.640625 Z M 4.890625 -10.640625 "/></g></g></g><g fill="#000000" fill-opacity="1"><g transform="translate(87.896216, 21.347124)"><g><path d="M 4.890625 -2.90625 L 9.140625 -2.90625 L 9.140625 0 L 1.09375 0 L 1.09375 -13.6875 L 4.890625 -13.6875 Z M 4.890625 -2.90625 "/></g></g></g><g fill="#000000" fill-opacity="1"><g transform="translate(97.421023, 21.347124)"><g><path d="M 7.640625 0.140625 C 6.359375 0.140625 5.179688 -0.160156 4.109375 -0.765625 C 3.035156 -1.367188 2.1875 -2.203125 1.5625 -3.265625 C 0.9375 -4.335938 0.625 -5.546875 0.625 -6.890625 C 0.625 -8.234375 0.9375 -9.4375 1.5625 -10.5 C 2.1875 -11.570312 3.035156 -12.40625 4.109375 -13 C 5.179688 -13.59375 6.359375 -13.890625 7.640625 -13.890625 C 8.941406 -13.890625 10.125 -13.59375 11.1875 -13 C 12.25 -12.40625 13.09375 -11.570312 13.71875 -10.5 C 14.34375 -9.4375 14.65625 -8.234375 14.65625 -6.890625 C 14.65625 -5.546875 14.34375 -4.335938 13.71875 -3.265625 C 13.09375 -2.203125 12.242188 -1.367188 11.171875 -0.765625 C 10.097656 -0.160156 8.921875 0.140625 7.640625 0.140625 Z M 7.640625 -3.390625 C 8.617188 -3.390625 9.390625 -3.707031 9.953125 -4.34375 C 10.515625 -4.976562 10.796875 -5.828125 10.796875 -6.890625 C 10.796875 -7.972656 10.515625 -8.828125 9.953125 -9.453125 C 9.390625 -10.085938 8.617188 -10.40625 7.640625 -10.40625 C 6.660156 -10.40625 5.890625 -10.085938 5.328125 -9.453125 C 4.773438 -8.828125 4.5 -7.972656 4.5 -6.890625 C 4.5 -5.816406 4.773438 -4.960938 5.328125 -4.328125 C 5.890625 -3.703125 6.660156 -3.390625 7.640625 -3.390625 Z M 7.640625 -3.390625 "/></g></g></g><g fill="#000000" fill-opacity="1"><g transform="translate(112.687879, 21.347124)"><g><path d="M 0.625 -6.875 C 0.625 -8.21875 0.90625 -9.414062 1.46875 -10.46875 C 2.03125 -11.519531 2.828125 -12.335938 3.859375 -12.921875 C 4.898438 -13.515625 6.09375 -13.8125 7.4375 -13.8125 C 9.144531 -13.8125 10.578125 -13.351562 11.734375 -12.4375 C 12.898438 -11.53125 13.648438 -10.296875 13.984375 -8.734375 L 9.890625 -8.734375 C 9.648438 -9.253906 9.3125 -9.648438 8.875 -9.921875 C 8.445312 -10.191406 7.945312 -10.328125 7.375 -10.328125 C 6.5 -10.328125 5.796875 -10.007812 5.265625 -9.375 C 4.742188 -8.75 4.484375 -7.914062 4.484375 -6.875 C 4.484375 -5.8125 4.742188 -4.960938 5.265625 -4.328125 C 5.796875 -3.703125 6.5 -3.390625 7.375 -3.390625 C 7.945312 -3.390625 8.445312 -3.523438 8.875 -3.796875 C 9.3125 -4.078125 9.648438 -4.472656 9.890625 -4.984375 L 13.984375 -4.984375 C 13.648438 -3.421875 12.898438 -2.179688 11.734375 -1.265625 C 10.578125 -0.359375 9.144531 0.09375 7.4375 0.09375 C 6.09375 0.09375 4.898438 -0.195312 3.859375 -0.78125 C 2.828125 -1.375 2.03125 -2.195312 1.46875 -3.25 C 0.90625 -4.300781 0.625 -5.507812 0.625 -6.875 Z M 0.625 -6.875 "/></g></g></g><g fill="#000000" fill-opacity="1"><g transform="translate(127.392172, 21.347124)"><g><path d="M 9.171875 0 L 4.890625 -6 L 4.890625 0 L 1.09375 0 L 1.09375 -13.6875 L 4.890625 -13.6875 L 4.890625 -7.78125 L 9.140625 -13.6875 L 13.53125 -13.6875 L 8.5 -7.046875 L 13.78125 0 Z M 9.171875 0 "/></g></g></g><g fill="#000000" fill-opacity="1"><g transform="translate(141.475703, 21.347124)"><g><path d="M 2.9375 0.15625 C 2.257812 0.15625 1.71875 -0.0234375 1.3125 -0.390625 C 0.90625 -0.765625 0.703125 -1.238281 0.703125 -1.8125 C 0.703125 -2.375 0.90625 -2.84375 1.3125 -3.21875 C 1.71875 -3.59375 2.257812 -3.78125 2.9375 -3.78125 C 3.59375 -3.78125 4.125 -3.59375 4.53125 -3.21875 C 4.9375 -2.84375 5.140625 -2.375 5.140625 -1.8125 C 5.140625 -1.25 4.9375 -0.78125 4.53125 -0.40625 C 4.125 -0.03125 3.59375 0.15625 2.9375 0.15625 Z M 2.9375 0.15625 "/></g></g></g><g fill="#000000" fill-opacity="1"><g transform="translate(147.314739, 21.347124)"><g><path d="M 0.625 -6.875 C 0.625 -8.21875 0.90625 -9.414062 1.46875 -10.46875 C 2.03125 -11.519531 2.828125 -12.335938 3.859375 -12.921875 C 4.898438 -13.515625 6.09375 -13.8125 7.4375 -13.8125 C 9.144531 -13.8125 10.578125 -13.351562 11.734375 -12.4375 C 12.898438 -11.53125 13.648438 -10.296875 13.984375 -8.734375 L 9.890625 -8.734375 C 9.648438 -9.253906 9.3125 -9.648438 8.875 -9.921875 C 8.445312 -10.191406 7.945312 -10.328125 7.375 -10.328125 C 6.5 -10.328125 5.796875 -10.007812 5.265625 -9.375 C 4.742188 -8.75 4.484375 -7.914062 4.484375 -6.875 C 4.484375 -5.8125 4.742188 -4.960938 5.265625 -4.328125 C 5.796875 -3.703125 6.5 -3.390625 7.375 -3.390625 C 7.945312 -3.390625 8.445312 -3.523438 8.875 -3.796875 C 9.3125 -4.078125 9.648438 -4.472656 9.890625 -4.984375 L 13.984375 -4.984375 C 13.648438 -3.421875 12.898438 -2.179688 11.734375 -1.265625 C 10.578125 -0.359375 9.144531 0.09375 7.4375 0.09375 C 6.09375 0.09375 4.898438 -0.195312 3.859375 -0.78125 C 2.828125 -1.375 2.03125 -2.195312 1.46875 -3.25 C 0.90625 -4.300781 0.625 -5.507812 0.625 -6.875 Z M 0.625 -6.875 "/></g></g></g><g fill="#000000" fill-opacity="1"><g transform="translate(162.019032, 21.347124)"><g><path d="M 0.625 -6.875 C 0.625 -8.21875 0.90625 -9.414062 1.46875 -10.46875 C 2.03125 -11.519531 2.828125 -12.335938 3.859375 -12.921875 C 4.898438 -13.515625 6.09375 -13.8125 7.4375 -13.8125 C 9.144531 -13.8125 10.578125 -13.351562 11.734375 -12.4375 C 12.898438 -11.53125 13.648438 -10.296875 13.984375 -8.734375 L 9.890625 -8.734375 C 9.648438 -9.253906 9.3125 -9.648438 8.875 -9.921875 C 8.445312 -10.191406 7.945312 -10.328125 7.375 -10.328125 C 6.5 -10.328125 5.796875 -10.007812 5.265625 -9.375 C 4.742188 -8.75 4.484375 -7.914062 4.484375 -6.875 C 4.484375 -5.8125 4.742188 -4.960938 5.265625 -4.328125 C 5.796875 -3.703125 6.5 -3.390625 7.375 -3.390625 C 7.945312 -3.390625 8.445312 -3.523438 8.875 -3.796875 C 9.3125 -4.078125 9.648438 -4.472656 9.890625 -4.984375 L 13.984375 -4.984375 C 13.648438 -3.421875 12.898438 -2.179688 11.734375 -1.265625 C 10.578125 -0.359375 9.144531 0.09375 7.4375 0.09375 C 6.09375 0.09375 4.898438 -0.195312 3.859375 -0.78125 C 2.828125 -1.375 2.03125 -2.195312 1.46875 -3.25 C 0.90625 -4.300781 0.625 -5.507812 0.625 -6.875 Z M 0.625 -6.875 "/></g></g></g></svg>