<?xml version="1.0" standalone="no"?>
<!DOCTYPE svg PUBLIC "-//W3C//DTD SVG 20010904//EN"
 "http://www.w3.org/TR/2001/REC-SVG-20010904/DTD/svg10.dtd">
<svg version="1.0" xmlns="http://www.w3.org/2000/svg"
 width="312.000000pt" height="200.000000pt" viewBox="0 0 312.000000 200.000000"
 preserveAspectRatio="xMidYMid meet">

<g transform="translate(0.000000,200.000000) scale(0.100000,-0.100000)"
fill="#000000" stroke="none">
<path d="M440 1656 c-469 -272 -455 -255 -276 -360 50 -30 152 -89 226 -131
74 -43 195 -113 269 -157 183 -109 205 -115 228 -65 20 43 -1 61 -184 167 -98
57 -214 124 -258 150 -44 26 -113 66 -153 89 -41 24 -70 47 -65 51 4 5 78 49
163 98 399 230 476 275 489 287 32 31 5 96 -38 95 -9 -1 -189 -101 -401 -224z"/>
<path d="M2126 1861 c-10 -11 -16 -31 -14 -47 3 -30 -22 -14 461 -294 118 -69
214 -126 213 -127 -1 -1 -135 -79 -297 -172 -162 -94 -313 -181 -336 -195 -35
-21 -43 -31 -43 -56 0 -20 8 -34 25 -46 30 -20 12 -28 370 179 503 291 447
254 443 295 -3 34 -8 38 -118 102 -63 36 -237 137 -386 223 -148 86 -277 157
-286 157 -8 0 -23 -9 -32 -19z"/>
<path d="M1175 1776 c-28 -12 -65 -39 -82 -59 -41 -47 -67 -133 -58 -190 21
-134 162 -305 408 -494 l57 -44 88 67 c176 136 331 311 367 415 31 87 12 178
-51 248 -112 125 -300 102 -394 -47 -9 -13 -12 -14 -17 -4 -13 34 -72 87 -118
108 -66 31 -134 31 -200 0z"/>
<path d="M2073 549 c-46 -17 -53 -44 -53 -195 0 -128 2 -144 21 -168 15 -19
30 -26 55 -26 49 0 74 29 74 85 0 41 -2 45 -24 45 -21 0 -25 -5 -28 -37 -2
-26 -8 -38 -18 -38 -13 0 -15 22 -15 140 0 118 2 140 15 140 10 0 16 -12 18
-37 3 -33 7 -38 28 -38 22 0 24 4 24 43 0 69 -42 106 -97 86z"/>
<path d="M570 355 l0 -195 65 0 c63 0 65 1 65 25 0 23 -4 25 -40 25 l-40 0 0
170 0 170 -25 0 -25 0 0 -195z"/>
<path d="M824 542 c-27 -18 -34 -56 -34 -190 0 -126 2 -142 21 -166 28 -36 80
-36 108 0 19 24 21 40 21 169 0 129 -2 145 -21 169 -20 26 -69 36 -95 18z m60
-64 c3 -13 6 -71 6 -129 0 -78 -4 -110 -15 -125 -13 -16 -16 -17 -25 -4 -10
16 -14 238 -4 264 9 23 31 19 38 -6z"/>
<path d="M1064 355 l30 -195 28 0 c15 0 28 3 28 6 0 11 50 340 55 362 5 19 1
22 -23 22 l-29 0 -13 -111 c-7 -60 -16 -107 -20 -102 -4 4 -13 54 -20 111 -12
101 -13 102 -39 102 l-27 0 30 -195z"/>
<path d="M1310 355 l0 -195 65 0 65 0 0 30 c0 28 -2 30 -40 30 l-40 0 0 55 c0
54 0 55 30 55 27 0 30 3 30 30 0 27 -3 30 -30 30 -29 0 -30 1 -30 49 l0 50 38
3 c32 3 37 7 40 31 l3 27 -65 0 -66 0 0 -195z"/>
<path d="M1540 355 l0 -195 65 0 c63 0 65 1 65 25 0 22 -4 25 -35 25 l-35 0 0
170 0 170 -30 0 -30 0 0 -195z"/>
<path d="M1784 529 c-17 -19 -19 -38 -19 -174 0 -136 2 -155 19 -174 25 -27
79 -28 105 -2 26 26 34 88 29 214 -4 128 -19 157 -77 157 -26 0 -44 -7 -57
-21z m71 -175 c0 -117 -2 -139 -15 -139 -12 0 -15 22 -18 129 -3 137 0 160 21
153 9 -3 12 -40 12 -143z"/>
<path d="M2280 355 l0 -195 25 0 c24 0 25 3 25 63 0 66 8 107 20 107 4 0 15
-38 25 -85 17 -83 18 -85 47 -85 23 0 28 4 24 18 -16 52 -56 247 -53 256 3 6
14 35 26 64 l21 52 -29 0 c-24 0 -29 -6 -40 -42 -7 -24 -19 -54 -27 -68 -12
-23 -13 -20 -14 43 0 65 -1 67 -25 67 l-25 0 0 -195z"/>
</g>
</svg>
