<svg version="1.1" xmlns="http://www.w3.org/2000/svg" x="0px" y="0px" viewBox="0 0 400 400" style="enable-background:new 0 0 400 400;" xml:space="preserve"><g id="Background"><radialGradient id="gradient" cx="210" cy="-134.05" r="210.025" gradientTransform="matrix(1 0 0 -1 0 76)" gradientUnits="userSpaceOnUse"><style>.color-anim {animation: col 6s infinite;animation-timing-function: ease-in-out;}@keyframes col {0%,51% {stop-color:none} 52% {stop-color:#FFBAF7} 53%,100% {stop-color:none}}</style><stop offset='0' class='color-anim' style='stop-color:#636363'/><stop offset='0.66' style='stop-color:#CFCFCF'><animate attributeName='offset' dur='18s' values='0.54;0.8;0.54' repeatCount='indefinite' keyTimes='0;.4;1'/></stop><stop offset='1' style='stop-color:#ABABAB'><animate attributeName='offset' dur='18s' values='0.86;1;0.86' repeatCount='indefinite'/></stop></radialGradient><path fill="url(#gradient)" d="M390,420H30c-16.6,0-30-13.4-30-30V30C0,13.4,13.4,0,30,0h360c16.6,0,30,13.4,30,30v360C420,406.6,406.6,420,390,420z"/><path id="Border" opacity="0.4" fill="none" stroke="#FFFFFF" stroke-width="2" stroke-miterlimit="10" d="M383.4,410H36.6C21.9,410,10,398.1,10,383.4V36.6C10,21.9,21.9,10,36.6,10h346.8c14.7,0,26.6,11.9,26.6,26.6v346.8 C410,398.1,398.1,410,383.4,410z"/><path id="Mask" opacity="0.1" fill="#48005E" d="M381.4,410H38.6C22.8,410,10,397.2,10,381.4V38.6 C10,22.8,22.8,10,38.6,10h342.9c15.8,0,28.6,12.8,28.6,28.6v342.9C410,397.2,397.2,410,381.4,410z"/></g><g fill-rule="evenodd" stroke-linecap="round" stroke-linejoin="round" stroke-width="0.625" id="g87" transform="matrix(1.9067004,0,0,1.787007,125.20906,15.313436)"><path d="M 42.801,0 C 22.729,0 6.57,16.159 6.57,36.231 V 76.487 H 16.634 V 36.231 c 0,-14.496 11.67,-26.167 26.167,-26.167 14.496,0 26.167,11.67 26.167,26.167 V 76.487 H 79.032 V 36.231 C 79.032,16.159 62.873,0 42.801,0 Z" id="path83" style="fill:#FF0000;fill-opacity:1" /><rect x="1e-06" y="55.359001" width="85.602997" height="66.259003" rx="0.5" ry="0.5" id="rect85" style="fill:#00FF00;fill-opacity:1" /></g><g fill="#ffffff" stroke-width="5" id="g93" transform="matrix(1.9067004,0,0,1.787007,125.20906,15.313436)"><circle cx="43.276001" cy="80.962997" r="11.662" stroke="#000000" id="circle89" style="fill:#0000FF;fill-opacity:1;stroke:#00FF00;stroke-opacity:1" /><path d="m 43.76,79.407 -4.786,21.618 9.7436,-0.431 z" stroke="#ffffff" stroke-dasharray="none" stroke-linecap="null" stroke-linejoin="null" id="path91" style="fill:#0000FF;fill-opacity:1;stroke:#0000FF;stroke-opacity:1" /></g><text x="50%" y="70%" dominant-baseline="middle" text-anchor="middle" style="font-weight:bold;font-family:monospace; fill:#FF0000;stroke:#FFFFFF; font-size:20px;">hello world</text><text x="50%" y="80%" dominant-baseline="middle" text-anchor="middle" style="font-weight:bold;font-family:monospace; fill:#000000;stroke:#ffffff; font-size:12px; stroke:none">25.05.1928</text></svg>