<svg width="85" height="85" viewBox="0 0 85 85" fill="none" xmlns="http://www.w3.org/2000/svg">
<path d="M18.5302 42.5013C18.5302 29.2603 29.2564 18.5315 42.4942 18.5315C50.4784 18.5315 57.5409 22.4266 61.9074 28.4421C62.8061 29.6752 64.5343 29.9517 65.767 29.0529C66.9998 28.154 67.2763 26.4254 66.3777 25.1923C61.0203 17.8055 52.3218 13 42.4942 13C26.2033 13 13 26.2065 13 42.5013V43.4232C13 44.9559 14.2328 46.189 15.7651 46.189C17.2974 46.189 18.5302 44.9559 18.5302 43.4232V42.5013ZM71.3548 36.4051C71.0437 34.907 69.569 33.9505 68.0828 34.2732C66.5966 34.5959 65.6288 36.0594 65.9514 37.546C66.2855 39.1478 66.4698 40.8073 66.4698 42.5128V43.4348C66.4698 44.9674 67.7026 46.2005 69.2349 46.2005C70.7672 46.2005 72 44.9674 72 43.4348V42.5128C72 40.427 71.7811 38.3873 71.3663 36.4167L71.3548 36.4051ZM38.5886 27.7737C39.8328 27.4395 41.1347 27.2667 42.4942 27.2667C50.9047 27.2667 57.7253 34.0888 57.7253 42.5013C57.7253 46.0853 57.5063 49.6923 57.2759 52.4119C57.1607 53.7717 57.0455 54.9011 56.9649 55.6847C56.9188 56.0765 56.8842 56.3877 56.8612 56.5951L56.8381 56.8256L56.8266 56.8832V56.8947C56.6423 58.4159 57.7137 59.7873 59.223 59.9832C60.7323 60.1791 62.1148 59.0958 62.3107 57.5862L59.5686 57.2405C62.3107 57.5862 62.3107 57.5862 62.3107 57.5862V57.5631L62.3222 57.494L62.3568 57.2405C62.3798 57.0215 62.4144 56.6873 62.4605 56.284C62.5526 55.4542 62.6678 54.2788 62.7831 52.8729C63.0135 50.061 63.2554 46.2927 63.2554 42.5013C63.2554 31.035 53.9578 21.7352 42.4942 21.7352C40.6624 21.7352 38.8766 21.9772 37.1715 22.4266C35.6967 22.8184 34.8096 24.328 35.2013 25.8031C35.593 27.2782 37.1023 28.1655 38.577 27.7737H38.5886ZM30.0053 33.7777C30.8809 32.5216 30.5813 30.8045 29.3255 29.9287C28.0697 29.0529 26.3531 29.3525 25.4774 30.6086C23.1271 33.9736 21.7331 38.0761 21.7331 42.5013C21.7331 45.97 21.2953 49.2544 20.8574 51.6859C20.6385 52.8959 20.4196 53.887 20.2583 54.5554C20.1777 54.8896 20.1086 55.1546 20.0625 55.3275C20.0394 55.4081 20.0279 55.4773 20.0164 55.5119L20.0049 55.558V55.5695C19.5901 57.033 20.4312 58.5657 21.9059 58.9921C23.3806 59.4185 24.9014 58.5657 25.3277 57.0906L22.6548 56.3301C25.3162 57.0906 25.3162 57.0906 25.3162 57.0906V57.0791V57.0561L25.3392 56.9869C25.3507 56.9293 25.3738 56.8486 25.4083 56.7449C25.4659 56.5375 25.5466 56.2379 25.6272 55.8576C25.8116 55.097 26.0535 54.0022 26.2955 52.677C26.7793 50.038 27.2632 46.4079 27.2632 42.5013C27.2632 39.2516 28.2771 36.2438 30.0053 33.7777V33.7777ZM42.4942 36.0479C46.0543 36.0479 48.9461 38.9404 48.9461 42.5013C48.9461 47.9291 48.635 52.4465 48.3124 55.5925C48.1511 57.1713 48.0014 58.3929 47.8862 59.2341C47.8286 59.649 47.7825 59.9601 47.7479 60.1675C47.7364 60.2713 47.7249 60.3519 47.7133 60.398L47.7018 60.4556V60.4672C47.4368 61.9768 48.4507 63.4058 49.9485 63.6708C51.4462 63.9359 52.8864 62.9333 53.1513 61.4237L50.4208 60.9396C53.1398 61.4121 53.1398 61.4121 53.1398 61.4121V61.4006V61.3776L53.1513 61.2969C53.1629 61.2277 53.1744 61.1356 53.1974 61.0203C53.232 60.7783 53.2896 60.4326 53.3472 59.9832C53.4739 59.0843 53.6352 57.7821 53.808 56.1342C54.1422 52.8268 54.4648 48.125 54.4648 42.4898C54.4648 35.875 49.0959 30.5049 42.4827 30.5049C35.8696 30.5049 30.5007 35.875 30.5007 42.4898C30.5007 47.8715 30.0514 52.1008 29.6136 54.9818C29.3947 56.4223 29.1757 57.5055 29.0145 58.2315C28.9338 58.5888 28.8647 58.8653 28.8301 59.0267C28.8071 59.1073 28.7955 59.1765 28.784 59.2111L28.7725 59.2456C28.3577 60.7092 29.1988 62.2419 30.6735 62.6682C32.1482 63.0946 33.669 62.2419 34.0953 60.7668L31.4339 60.0177C34.0953 60.7783 34.0953 60.7783 34.0953 60.7783V60.7668L34.1068 60.7437L34.1299 60.6631C34.1414 60.6055 34.1644 60.5133 34.199 60.398C34.2566 60.1675 34.3372 59.8449 34.4294 59.43C34.6137 58.6003 34.8557 57.3787 35.0976 55.823C35.4433 53.6104 35.7774 50.6833 35.9387 47.1455C36.0078 45.6935 36.0424 44.1492 36.0424 42.5013C36.0424 38.9404 38.9342 36.0479 42.4942 36.0479ZM45.2593 42.5013C45.2593 40.9686 44.0266 39.7356 42.4942 39.7356C40.9619 39.7356 39.7292 40.9686 39.7292 42.5013C39.7292 47.7332 39.4296 52.1123 39.0033 55.6962L36.2728 68.1191C35.6622 69.5135 36.2843 71.1383 37.6784 71.7606C39.0724 72.3829 40.7085 71.7491 41.3306 70.3547L38.8075 69.2369C41.3306 70.3547 41.3306 70.3547 41.3306 70.3547V70.3432L41.3421 70.3086L41.3882 70.2049C41.4228 70.1127 41.4689 69.9975 41.5265 69.8477C41.6417 69.5365 41.803 69.0986 41.9873 68.5224C42.3675 67.3585 42.8514 65.6529 43.3353 63.3712C44.3146 58.7847 45.2593 51.9049 45.2593 42.5013ZM39.0033 55.6962L42.4942 39.7356L39.0033 55.6962ZM39.0033 55.6962C38.6922 58.2891 38.3236 60.4556 37.9434 62.2188C37.5056 64.3162 37.0678 65.8258 36.7567 66.8053C36.5954 67.2893 36.4687 67.6466 36.388 67.8655C36.3419 67.9693 36.3189 68.0499 36.2958 68.096L36.2843 68.1421L39.0033 55.7078V55.6962Z" fill="#D50B0B"/>
</svg>
